<svg xmlns="http://www.w3.org/2000/svg" xmlns:xlink="http://www.w3.org/1999/xlink" version="1.1" x="0px" y="0px" viewBox="0 0 48 60" enable-background="new 0 0 48 48" xml:space="preserve"><g><g><path d="M24,42.1c-8.1,0-15.9-4-22.5-11.5c-1.3-1.4-1.3-4.1,0-5.5C8.1,17.6,15.9,13.6,24,13.6s15.9,4,22.5,11.5    c1.3,1.4,1.3,4.1,0,5.5C39.9,38.1,32.1,42.1,24,42.1z M4.4,28.1C10.3,34.7,17,38.2,24,38.2s13.7-3.5,19.6-10.1c0-0.1,0-0.3,0-0.5    C37.7,21,31,17.6,24,17.6S10.3,21,4.4,27.6C4.4,27.8,4.4,28,4.4,28.1z"/></g><g><path d="M24,37.7c-5.4,0-9.8-4.4-9.8-9.8s4.4-9.8,9.8-9.8s9.8,4.4,9.8,9.8S29.4,37.7,24,37.7z M24,22c-3.2,0-5.9,2.6-5.9,5.9    s2.6,5.9,5.9,5.9s5.9-2.6,5.9-5.9S27.2,22,24,22z"/></g><g><path d="M24,30.8c-1.6,0-2.9-1.3-2.9-2.9c0-1.6,1.3-2.9,2.9-2.9s2.9,1.3,2.9,2.9C26.9,29.5,25.6,30.8,24,30.8z M24,26.9    c-0.5,0-1,0.4-1,1c0,0.5,0.4,1,1,1s1-0.4,1-1C25,27.3,24.5,26.9,24,26.9z"/></g><g><path d="M34.8,19c-0.8,0-1.6-0.5-1.9-1.4L30.6,10c-0.3-1,0.3-2.1,1.3-2.4c1-0.3,2.1,0.3,2.4,1.3l2.4,7.7c0.3,1-0.3,2.1-1.3,2.4    C35.2,19,35,19,34.8,19z"/></g><g><path d="M27.9,17.5c-0.8,0-1.6-0.5-1.9-1.4l-2.4-7.7c-0.3-1,0.3-2.1,1.3-2.4c1-0.3,2.1,0.3,2.4,1.3l2.4,7.7c0.3,1-0.3,2.1-1.3,2.4    C28.3,17.5,28.1,17.5,27.9,17.5z"/></g><g><path d="M20.6,17.5c-0.8,0-1.6-0.5-1.9-1.4l-2.4-7.7c-0.3-1,0.3-2.1,1.3-2.4c1-0.3,2.1,0.3,2.4,1.3l2.4,7.7c0.3,1-0.3,2.1-1.3,2.4    C20.9,17.5,20.7,17.5,20.6,17.5z"/></g><g><path d="M14.6,18.9c-0.8,0-1.6-0.5-1.9-1.4l-2.4-7.7c-0.3-1,0.3-2.1,1.3-2.4c1-0.3,2.1,0.3,2.4,1.3l2.4,7.7c0.3,1-0.3,2.1-1.3,2.4    C15,18.9,14.8,18.9,14.6,18.9z"/></g><g><path d="M8.4,21.8c-0.8,0-1.6-0.5-1.9-1.4l-2.4-7.7c-0.3-1,0.3-2.1,1.3-2.4c1-0.3,2.1,0.3,2.4,1.3l2.4,7.7c0.3,1-0.3,2.1-1.3,2.4    C8.8,21.7,8.6,21.8,8.4,21.8z"/></g></g></svg>