<svg xmlns="http://www.w3.org/2000/svg" viewBox="0 0 64 80" x="0px" y="0px"><title>rocket-ship-spaceship-future-science</title><g><g data-name="35-Rocket"><path d="M43.992,27.6C43.835,18,37.988,2,32,2S20.165,18,20.008,27.6L9.263,39.324a1,1,0,0,0-.255.8l2,16A1,1,0,0,0,12,57h2a1,1,0,0,0,.988-.848l1.905-12.376,8.957-2.687c.222.15.447.293.675.425l-2.382,3.971a.992.992,0,0,0,.784,1.505l-2.708,3.385A1,1,0,0,0,23,52h2.523l-1.452,3.629A1,1,0,0,0,25,57h4.382l1.723,3.447a1,1,0,0,0,1.79,0L34.618,57H39a1,1,0,0,0,.929-1.371L38.477,52H40a1,1,0,0,0,.857-1.515L38.766,47H39a1,1,0,0,0,.857-1.515l-2.382-3.971c.228-.132.453-.275.675-.425l8.957,2.687,1.905,12.376A1,1,0,0,0,50,57h2a1,1,0,0,0,.992-.876l2-16a1,1,0,0,0-.255-.8ZM32,4c1.659,0,3.651,2.449,5.42,6H26.58C28.349,6.449,30.341,4,32,4Zm-6.342,8H38.342A44.2,44.2,0,0,1,42,28c0,8.932-5.184,13-10,13S22,36.932,22,28A44.2,44.2,0,0,1,25.658,12ZM15.713,42.042a1,1,0,0,0-.7.806L13.142,55h-.259L11.05,40.335l9.087-9.914a15.057,15.057,0,0,0,3.885,9.128ZM38.233,50H37a1,1,0,0,0-.929,1.371L37.523,55H34a1,1,0,0,0-.9.553L32,57.764,30.9,55.553A1,1,0,0,0,30,55H26.477l1.452-3.629A1,1,0,0,0,27,50H25.081l2.4-3h2.132l-.561,1.684a1,1,0,0,0,.116.871l2,3a1,1,0,0,0,1.664,0l2-3a1,1,0,0,0,.116-.871L34.387,47h2.047Zm-5.954-3,.617,1.853L32,50.2l-.9-1.344L31.721,47Zm4.954-2H26.767l1.587-2.647a10.6,10.6,0,0,0,7.292,0ZM51.117,55h-.259l-1.87-12.152a1,1,0,0,0-.7-.806l-8.309-2.493a15.057,15.057,0,0,0,3.885-9.128l9.087,9.914Z"/><path d="M32,28a7,7,0,1,0-7-7A7.009,7.009,0,0,0,32,28Zm0-12a5,5,0,1,1-5,5A5.006,5.006,0,0,1,32,16Z"/><path d="M28.147,38.055l1.233-1.576A10.318,10.318,0,0,1,25.5,28.5l-2,0A12.365,12.365,0,0,0,28.147,38.055Z"/><rect x="30.196" y="37.994" width="2" height="1.976" transform="translate(-17.884 48.143) rotate(-61.904)"/><path d="M34.41,21.335,36.4,21.5a4.126,4.126,0,0,0-1.063-3.106,4.182,4.182,0,0,0-3-1.337l-.016,2a2.11,2.11,0,0,1,2.085,2.281Z"/><path d="M58,14H49a3,3,0,0,1-.04-6c1.064.045,1.387.056,1.731-.275A1.006,1.006,0,0,0,51,7,3,3,0,0,1,56.61,5.526a.992.992,0,0,0,.989.5A3.231,3.231,0,0,1,58,6a3.967,3.967,0,0,1,3.2,1.6l1.6-1.2A5.957,5.957,0,0,0,58,4h0a5,5,0,0,0-8.9,2L49,6a5,5,0,0,0,0,10h9a5.958,5.958,0,0,0,4.8-2.4l-1.6-1.2A3.973,3.973,0,0,1,58,14Z"/><path d="M12,27H2v2H12a5,5,0,1,0-.038-10h0l-.06,0A5,5,0,0,0,2.988,17.02L2.02,17l-.04,2,1.52.03h.02a1,1,0,0,0,.868-.5A3,3,0,0,1,10,20a1.006,1.006,0,0,0,.309.724c.344.332.667.317,1.691.276a3,3,0,0,1,0,6Z"/></g></g></svg>