<svg xmlns="http://www.w3.org/2000/svg" xmlns:xlink="http://www.w3.org/1999/xlink" version="1.1" x="0px" y="0px" viewBox="0 0 66 82.5" enable-background="new 0 0 66 66" xml:space="preserve"><g><path d="M47.7,38.8c0.3,0,0.6-0.2,0.7-0.6c0.3-1.3,0.1-0.3,3-13.3c-1.9-0.1-3.5-1.3-4.3-3l-5.9,3.3l-4.3-6.5   c-0.9,0.7-2,1.2-3.3,1.2c-1.5,0-2.8-0.6-3.7-1.6l-5.4,6.2L19,21.7c-0.7,1.7-2.4,3-4.3,3.2c0.1,0.3,2.9,13.1,3,13.4   c0.1,0.4,0.5,0.6,0.8,0.5c9.3-2,19.7-2,29.1,0C47.6,38.8,47.6,38.8,47.7,38.8z"/><path d="M33.7,18.4c2,0,3.7-1.6,3.7-3.7c0-2-1.6-3.7-3.7-3.7c-2,0-3.7,1.7-3.7,3.7C30,16.8,31.6,18.4,33.7,18.4z"/><path d="M14.2,23.5c2,0,3.7-1.6,3.7-3.7c0-2-1.7-3.7-3.7-3.7c-2,0-3.7,1.6-3.7,3.7C10.5,21.8,12.2,23.5,14.2,23.5z"/><path d="M51.8,23.5c2,0,3.7-1.6,3.7-3.7c0-2-1.6-3.7-3.7-3.7c-2,0-3.7,1.6-3.7,3.7C48.1,21.8,49.8,23.5,51.8,23.5z"/><path d="M16.4,11.7c0.1,0.3,0.4,0.4,0.6,0.4c0.1,0,0.2,0,0.3-0.1c0.4-0.2,0.5-0.6,0.3-1l-2.2-4.5c-0.2-0.4-0.6-0.5-1-0.3   c-0.4,0.2-0.5,0.6-0.3,1L16.4,11.7z"/><path d="M24.5,8.6c0.1,0.3,0.4,0.6,0.7,0.6c0.1,0,0.1,0,0.2,0c0.4-0.1,0.6-0.5,0.5-0.9l-1.1-4.9c-0.1-0.4-0.5-0.6-0.9-0.5   c-0.4,0.1-0.6,0.5-0.5,0.9L24.5,8.6z"/><path d="M33.7,8.2c0.4,0,0.7-0.3,0.7-0.7v-5c0-0.4-0.3-0.7-0.7-0.7c-0.4,0-0.7,0.3-0.7,0.7v5C32.9,7.9,33.3,8.2,33.7,8.2z"/><path d="M42,9.1c0.1,0,0.1,0,0.2,0c0.3,0,0.6-0.2,0.7-0.6L44,3.8c0.1-0.4-0.2-0.8-0.5-0.9c-0.4-0.1-0.8,0.1-0.9,0.5l-1.1,4.9   C41.4,8.7,41.6,9.1,42,9.1z"/><path d="M50,12c0.1,0.1,0.2,0.1,0.3,0.1c0.3,0,0.5-0.1,0.6-0.4l2.2-4.5c0.2-0.4,0-0.8-0.3-1c-0.4-0.2-0.8,0-1,0.3l-2.2,4.5   C49.5,11.4,49.6,11.9,50,12z"/><path d="M58.1,55.7H42.9c-0.5,0-0.9,0.4-0.9,0.9v6.7c0,0.5,0.4,0.9,0.9,0.9h15.2c0.5,0,0.9-0.4,0.9-0.9v-6.7   C59,56.1,58.6,55.7,58.1,55.7z"/><path d="M60.7,26.2c-1.7,0-3,1.4-3,3v10.1l-1.7,2c-0.1-0.7-0.5-1.3-1-1.8l-0.1-0.1c-1.2-1.2-3.3-1.1-4.4,0.3l-5.6,7.2   c-0.4,0.6-0.7,1.4-0.7,2.2v5.1h12.3c0-2-0.3-1,6.9-10.9c0.3-0.4,0.4-0.9,0.4-1.3V29.3C63.7,27.6,62.4,26.2,60.7,26.2z"/><path d="M23.1,55.8H7.9c-0.5,0-0.9,0.4-0.9,0.9v6.7c0,0.5,0.4,0.9,0.9,0.9h15.2c0.5,0,0.9-0.4,0.9-0.9v-6.7   C24,56.2,23.6,55.8,23.1,55.8z"/><path d="M9.6,54.3h12.3v-5.1c0-0.8-0.2-1.5-0.7-2.2l-5.6-7.2c-1.1-1.4-3.1-1.5-4.3-0.3l-0.1,0.1c-0.5,0.5-0.9,1.1-1,1.8l-1.7-2   V29.3c0-1.7-1.4-3-3-3c-1.7,0-3,1.4-3,3v12.8c0,0.5,0.1,0.9,0.4,1.4C10.1,53.7,9.6,52.6,9.6,54.3z"/></g></svg>